<?xml version="1.0" encoding="utf-8"?>
<!-- Generator: Adobe Illustrator 24.3.0, SVG Export Plug-In . SVG Version: 6.00 Build 0)  -->
<svg version="1.1" id="Layer_1" xmlns="http://www.w3.org/2000/svg" xmlns:xlink="http://www.w3.org/1999/xlink" x="0px" y="0px"
	 viewBox="0 0 100 100" style="enable-background:new 0 0 100 100;" xml:space="preserve">
<style type="text/css">
	.st0{fill:#0397D5;}
</style>
<g id="_x23_0397d5ff">
	<g>
		<path class="st0" d="M61.71,4.9c0.81-0.21,1.64-0.44,2.48-0.47c0.67,2.4,1.24,4.87,1.12,7.38c-0.03,2.72-1,5.42-2.73,7.53
			c-0.8,1.03-1.83,1.84-2.88,2.59c-0.11,0.09-0.26,0.17-0.31,0.32c2.26,1.19,4.37,2.68,6.16,4.5c0.19,0.26,0.51,0.18,0.73-0.01
			c2.22-1.63,4.98-2.41,7.71-2.47c1.55,0.16,3.14,0.16,4.64,0.65c2.22,0.56,4.27,1.68,6.1,3.03c-0.17,0.54-0.51,1.01-0.79,1.49
			c-1.38,2.24-3.07,4.38-5.36,5.75c-2.02,1.28-4.46,1.72-6.82,1.62c-2.19-0.09-4.29-0.88-6.16-1.97c-0.23-0.14-0.45-0.3-0.63-0.5
			c3.19-0.97,6.43-2.09,9.16-4.06c-3.55,0.9-7.13,1.79-10.8,1.98c-0.34,0.04-0.65-0.11-0.87-0.36c-1.23-1.25-2.61-2.35-4.07-3.32
			c-0.65-0.45-1.39-0.78-2-1.29c-0.14-1.01-0.05-2.05-0.03-3.06c0.27-3.24,0.91-6.45,1.85-9.56c0.19-0.57,0.44-1.11,0.55-1.7
			c-1.2,1.35-2,2.99-2.84,4.57c-1.06,2.3-1.96,4.74-2.15,7.29c-0.04,0.43-0.04,0.86-0.09,1.29c-1.18-0.23-2.33-0.59-3.49-0.92
			c-0.12-0.31-0.07-0.65-0.06-0.98c0.08-1.06,0.25-2.12,0.46-3.16c0.11-0.61,0.44-1.16,0.62-1.75c0.06-0.43-0.09-0.86-0.1-1.3
			c-0.11-1.26,0.12-2.5,0.4-3.72c0.24-1.03,0.81-1.94,1.24-2.89c0.3-0.68,0.91-1.15,1.35-1.74c1.14-1.49,2.68-2.65,4.36-3.47
			C59.44,5.54,60.62,5.32,61.71,4.9z"/>
	</g>
	<g>
		<path class="st0" d="M43.78,11.16c0.12-0.39,0.64-0.44,0.95-0.26c0.96,0.52,1.88,1.18,2.5,2.09c0.52,0.77,0.66,1.81,0.31,2.68
			c-0.24,0.6-0.44,1.22-0.64,1.83c-1.1-0.08-2.28-0.44-2.97-1.36c-0.56-0.61-0.75-1.45-0.67-2.26
			C43.23,12.95,43.44,12.02,43.78,11.16z"/>
	</g>
	<g>
		<path class="st0" d="M68.93,14.9c1.65-1.51,4.01-2.02,6.19-1.84c0.15,1.61,0.21,3.33-0.52,4.83c-0.66,1.43-2.09,2.57-3.71,2.55
			c-1.27,0.07-2.55-0.64-3.2-1.73C67.41,17.32,67.95,15.88,68.93,14.9z"/>
	</g>
	<g>
		<path class="st0" d="M34.31,20.67c0.45-0.08,0.82-0.38,1.24-0.53c1.16-0.43,2.36-0.78,3.58-0.98c1.47-0.07,2.91-0.54,4.39-0.5
			c1.71,0.03,3.46-0.09,5.13,0.31c-0.07,0.7-0.3,1.37-0.39,2.06c-0.25,1.3-0.3,2.64-0.62,3.93c-1.79-0.03-3.58-0.12-5.36,0.1
			c-3.84,0.51-7.57,1.95-10.7,4.24c-1.44,1.05-2.69,2.34-3.92,3.63c-1.25,1.55-2.42,3.19-3.25,5.01
			c-2.75,5.67-2.82,12.52-0.33,18.29c0.99,2.22,2.29,4.32,3.95,6.1c0.9,0.92,1.8,1.85,2.81,2.66c0.31,0.21,0.25,0.6,0.27,0.93
			c-0.03,2.37,0.03,4.75-0.05,7.12c-0.38-0.12-0.72-0.33-1.04-0.55c-4.09-2.67-7.68-6.18-10.17-10.4c-2.46-4-3.91-8.62-4.08-13.32
			c0.01-1.48-0.09-2.97,0.14-4.44c-0.01-1.55,0.52-3.03,0.79-4.54c0.74-2.52,1.74-4.97,3.12-7.2c0.93-1.28,1.66-2.72,2.77-3.86
			c0.4-0.3,0.73-0.67,1.03-1.07c1.22-1.24,2.47-2.49,3.96-3.41c1.08-0.63,2.03-1.46,3.16-2.01"/>
	</g>
	<g>
		<path class="st0" d="M42.33,34.45c1.66-0.61,3.45-0.59,5.19-0.56c2.12,0.15,4.2,0.9,5.93,2.15c2.33,1.6,3.98,4.08,4.79,6.77
			c0.74,2.64,0.68,5.52-0.32,8.09c-0.59,1.46-1.54,2.75-2.6,3.91c-1.29,1.19-2.75,2.26-4.42,2.84c-2.14,0.79-4.49,1.15-6.74,0.69
			c-0.82-0.17-1.66-0.32-2.4-0.73c-0.07-0.33-0.07-0.66-0.07-0.99c0.01-2.08,0-4.15-0.01-6.23c0.55,0.19,1.03,0.52,1.57,0.73
			c1.7,0.69,3.68,0.84,5.4,0.12c0.82-0.42,1.65-0.88,2.21-1.64c0.46-0.62,0.88-1.29,1.07-2.05c0.24-1.37,0.13-2.85-0.55-4.1
			c-0.53-1.09-1.51-1.91-2.58-2.45c-1.85-0.83-4.1-0.66-5.8,0.43c-1.9,1.2-2.83,3.52-2.86,5.7c-0.01,11.68,0.01,23.37,0,35.05
			c-0.03,2.63-0.65,5.29-2.11,7.5c-1.34,2.09-3.3,3.78-5.58,4.78c-2.02,0.94-4.3,1.23-6.51,1.03c-4.75-0.55-9.08-4.13-10.29-8.79
			c-0.57-2.16-0.45-4.48,0.27-6.6c0.7,0.14,1.25,0.62,1.89,0.89c0.79,0.43,1.69,0.64,2.46,1.09c0.2,0.83,0.26,1.7,0.62,2.5
			c0.74,1.96,2.39,3.59,4.43,4.13c1.47,0.46,3.08,0.31,4.47-0.32c1.5-0.76,2.73-2.06,3.3-3.65c0.34-0.96,0.48-1.99,0.5-3
			c0-4.49-0.01-8.98,0.01-13.47c0.02-3.55-0.05-7.1,0.04-10.65c0.02-1.43-0.08-2.86,0-4.28c0.04-1.97,0-3.95,0.03-5.92
			c0.03-1.13-0.07-2.27,0.17-3.38c0.48-2.02,1.4-3.93,2.68-5.57c0.39-0.45,0.84-0.85,1.23-1.29c0.61-0.69,1.43-1.13,2.17-1.66
			C40.63,35.02,41.5,34.76,42.33,34.45z"/>
	</g>
	<g>
		<path class="st0" d="M67.45,38.03c1.15,0.11,2.28,0.44,3.44,0.44c1.11,0.11,2.23-0.06,3.34-0.01c0.33,0.68,0.49,1.42,0.7,2.13
			c0.69,2.42,1.12,4.93,1.07,7.46c-0.03,3.15-0.64,6.27-1.62,9.26c-0.9,2.52-2.18,4.9-3.7,7.1c-1.38,1.8-2.79,3.61-4.53,5.08
			c-5.91,5.4-14.19,8.26-22.17,7.22c-0.08-0.28-0.1-0.57-0.11-0.85c-0.04-1.92,0.03-3.83-0.01-5.75c0.88-0.07,1.75,0.14,2.63,0.14
			c3.13,0.08,6.27-0.56,9.13-1.83c2.25-0.94,4.26-2.36,6.11-3.93c3.43-3.11,6.03-7.19,7.1-11.71c0.85-3.96,0.82-8.15-0.41-12.02
			C68.18,39.81,67.63,38.98,67.45,38.03z"/>
	</g>
	<g>
		<path class="st0" d="M79.8,43.19c0.96-0.35,1.78,1,1.12,1.72c-0.46,0.67-1.67,0.43-1.85-0.35C78.88,44,79.24,43.36,79.8,43.19z"/>
	</g>
	<g>
		<path class="st0" d="M21.1,76.19c0.49-0.15,1.08-0.16,1.5,0.18c0.78,0.6,0.77,2.06-0.18,2.49c-0.65,0.43-1.59,0.17-2.01-0.46
			C19.89,77.67,20.23,76.47,21.1,76.19z"/>
	</g>
</g>
</svg>
