<?xml version="1.0" encoding="utf-8"?>
<!-- Generator: Adobe Illustrator 18.1.1, SVG Export Plug-In . SVG Version: 6.00 Build 0)  -->
<svg version="1.1" id="Layer_1" xmlns="http://www.w3.org/2000/svg" xmlns:xlink="http://www.w3.org/1999/xlink" x="0px" y="0px"
	 viewBox="0 0 120 30.5" enable-background="new 0 0 120 30.5" xml:space="preserve">
<g>
	<g>
		<path fill="#717171" d="M7.4,15.6c0-0.3,0-0.6,0-0.8c0,0,0-0.1,0-0.1c0.1-0.4,0.1-0.8,0.2-1.3c0.3-1.8,1.1-3.3,2.3-4.6
			C11.5,7,13.6,6,16,5.7c0.8-0.1,1.7-0.1,2.5,0.1c1.1,0.2,2.2,0.6,3.2,1.1c3.3,1.9,5.2,5.6,4.8,9.4c-0.1,1.1-0.4,2.2-0.9,3.2
			c-1.1,2.3-2.9,3.8-5.3,4.7c-1.5,0.6-3.1,0.7-4.7,0.5c-0.9-0.1-1.7-0.4-2.5-0.7c-1.8-0.8-3.1-2-4.2-3.7c-0.8-1.2-1.2-2.6-1.4-4.1
			C7.5,16,7.4,15.8,7.4,15.6z M17,23.1c4.4,0,7.9-3.5,7.9-7.9c0-4.4-3.5-7.9-7.9-7.9c-4.4,0-7.9,3.5-7.9,7.9
			C9.1,19.6,12.6,23.1,17,23.1z"/>
		<path fill="#717171" d="M16.7,21.6c-0.9,0-1.7-0.1-2.5-0.3c-0.2-0.1-0.4-0.1-0.7-0.2c-0.4-0.2-0.7-0.6-0.6-1.1
			c0.1-0.4,0.5-0.7,1-0.7c0.2,0,0.4,0.1,0.6,0.1c0.8,0.2,1.5,0.3,2.3,0.3c0.8,0,1.6-0.2,2.3-0.6c0.8-0.4,1.3-1,1.8-1.7
			c0.4-0.6,0.6-1.3,0.8-2c0.1-0.5,0.5-0.7,0.9-0.7c0.6,0,1,0.6,0.8,1.1c-0.3,1.3-0.9,2.5-1.7,3.5c-0.9,1.1-2.1,1.7-3.5,2
			C17.8,21.6,17.2,21.6,16.7,21.6z"/>
		<path fill="#717171" d="M18.7,13c-0.9,0-1.7-0.8-1.7-1.7c0-0.9,0.8-1.7,1.7-1.7c0.9,0,1.7,0.8,1.7,1.7C20.4,12.3,19.7,13,18.7,13z
			"/>
		<path fill="#717171" d="M14.4,14.3c0,0.9-0.8,1.7-1.7,1.7c-0.9,0-1.7-0.8-1.7-1.7c0-0.9,0.8-1.7,1.7-1.7
			C13.7,12.6,14.4,13.4,14.4,14.3z"/>
	</g>
	<text transform="matrix(1 0 0 1 30.3776 21.5785)" fill="#717171" font-family="'Tahoma'" font-size="19.0318">Prendster </text>
</g>
</svg>
