<?xml version="1.0" encoding="utf-8"?>
<!-- Generator: Adobe Illustrator 24.3.0, SVG Export Plug-In . SVG Version: 6.00 Build 0)  -->
<svg version="1.1" baseProfile="basic" id="Layer_1"
	 xmlns="http://www.w3.org/2000/svg" xmlns:xlink="http://www.w3.org/1999/xlink" x="0px" y="0px" viewBox="0 0 100 21"
	 xml:space="preserve">
<style type="text/css">
	.st0{fill:#0297D6;}
</style>
<g>
	<g>
		<path class="st0" d="M23.36,9.9c0-1.14-0.04-2.07-0.07-2.91h1.46l0.07,1.53h0.04c0.66-1.09,1.72-1.73,3.17-1.73
			c2.16,0,3.78,1.83,3.78,4.54c0,3.21-1.96,4.8-4.06,4.8c-1.18,0-2.21-0.52-2.75-1.4h-0.04v4.85h-1.61V9.9z M24.96,12.28
			c0,0.24,0.04,0.46,0.07,0.66c0.3,1.13,1.27,1.9,2.44,1.9c1.72,0,2.71-1.4,2.71-3.45c0-1.79-0.94-3.32-2.66-3.32
			c-1.11,0-2.14,0.79-2.45,2.01c-0.06,0.2-0.11,0.44-0.11,0.66V12.28z"/>
		<path class="st0" d="M33.85,9.77c0-1.05-0.02-1.96-0.07-2.79h1.42l0.06,1.75h0.07c0.41-1.2,1.38-1.96,2.47-1.96
			c0.18,0,0.31,0.02,0.46,0.06v1.53c-0.17-0.04-0.33-0.06-0.55-0.06c-1.14,0-1.96,0.87-2.18,2.08c-0.04,0.22-0.07,0.48-0.07,0.76
			v4.76h-1.61V9.77z"/>
		<path class="st0" d="M40.61,11.74c0.04,2.2,1.44,3.1,3.06,3.1c1.16,0,1.86-0.2,2.47-0.46l0.28,1.16
			c-0.57,0.26-1.55,0.55-2.97,0.55c-2.75,0-4.39-1.81-4.39-4.5c0-2.69,1.59-4.81,4.19-4.81c2.91,0,3.69,2.56,3.69,4.21
			c0,0.33-0.04,0.59-0.06,0.76H40.61z M45.37,10.58c0.02-1.03-0.42-2.64-2.25-2.64c-1.64,0-2.36,1.51-2.49,2.64H45.37z"/>
		<path class="st0" d="M48.95,9.4c0-0.92-0.02-1.68-0.07-2.42h1.44l0.09,1.48h0.04c0.44-0.85,1.48-1.68,2.95-1.68
			c1.24,0,3.15,0.74,3.15,3.8v5.33h-1.62v-5.15c0-1.44-0.54-2.64-2.07-2.64c-1.07,0-1.9,0.76-2.18,1.66
			c-0.07,0.2-0.11,0.48-0.11,0.76v5.37h-1.62V9.4z"/>
		<path class="st0" d="M66.9,2.82v10.79c0,0.79,0.02,1.7,0.07,2.31h-1.46l-0.07-1.55H65.4c-0.5,1-1.59,1.75-3.04,1.75
			c-2.16,0-3.82-1.83-3.82-4.54c-0.02-2.97,1.83-4.8,4-4.8c1.37,0,2.29,0.65,2.69,1.36h0.04V2.82H66.9z M65.27,10.62
			c0-0.2-0.02-0.48-0.07-0.68c-0.24-1.03-1.13-1.88-2.34-1.88c-1.68,0-2.68,1.48-2.68,3.45c0,1.81,0.89,3.3,2.64,3.3
			c1.09,0,2.08-0.72,2.38-1.94c0.05-0.22,0.07-0.44,0.07-0.7V10.62z"/>
		<path class="st0" d="M69.37,14.25c0.48,0.31,1.33,0.65,2.14,0.65c1.18,0,1.73-0.59,1.73-1.33c0-0.77-0.46-1.2-1.66-1.64
			c-1.61-0.57-2.36-1.46-2.36-2.53c0-1.44,1.16-2.62,3.08-2.62c0.9,0,1.7,0.26,2.2,0.55l-0.41,1.18C73.74,8.29,73.1,8,72.27,8
			c-0.96,0-1.49,0.55-1.49,1.22c0,0.74,0.54,1.07,1.7,1.51c1.55,0.59,2.34,1.37,2.34,2.69c0,1.57-1.22,2.67-3.34,2.67
			c-0.98,0-1.88-0.24-2.51-0.61L69.37,14.25z"/>
		<path class="st0" d="M78.85,4.42v2.56h2.32v1.24h-2.32v4.81c0,1.11,0.31,1.73,1.22,1.73c0.42,0,0.74-0.06,0.94-0.11l0.07,1.22
			c-0.31,0.13-0.81,0.22-1.44,0.22c-0.76,0-1.36-0.24-1.75-0.68c-0.46-0.48-0.63-1.27-0.63-2.32V8.22h-1.38V6.98h1.38V4.84
			L78.85,4.42z"/>
		<path class="st0" d="M83.8,11.74c0.04,2.2,1.44,3.1,3.06,3.1c1.16,0,1.86-0.2,2.47-0.46l0.28,1.16c-0.57,0.26-1.55,0.55-2.97,0.55
			c-2.75,0-4.39-1.81-4.39-4.5c0-2.69,1.59-4.81,4.19-4.81c2.91,0,3.69,2.56,3.69,4.21c0,0.33-0.04,0.59-0.06,0.76H83.8z
			 M88.56,10.58c0.02-1.03-0.42-2.64-2.25-2.64c-1.64,0-2.36,1.51-2.49,2.64H88.56z"/>
		<path class="st0" d="M92.14,9.77c0-1.05-0.02-1.96-0.07-2.79h1.42l0.06,1.75h0.07c0.41-1.2,1.38-1.96,2.47-1.96
			c0.18,0,0.31,0.02,0.46,0.06v1.53c-0.17-0.04-0.33-0.06-0.55-0.06c-1.14,0-1.95,0.87-2.18,2.08c-0.04,0.22-0.07,0.48-0.07,0.76
			v4.76h-1.61V9.77z"/>
		<path class="st0" d="M96.81,14.95c0-0.68,0.46-1.16,1.11-1.16S99,14.27,99,14.95c0,0.66-0.42,1.16-1.11,1.16
			C97.25,16.12,96.81,15.62,96.81,14.95z"/>
	</g>
	<g id="_x23_000000ff">
		<g>
			<path class="st0" d="M10.15,1.35h0.02c1.55,0,3.09,0.4,4.44,1.16c1.08,0.6,2.04,1.43,2.79,2.41c0.72,0.94,1.26,2.02,1.57,3.17
				c0.49,1.78,0.42,3.7-0.19,5.44c-0.47,1.34-1.25,2.56-2.27,3.54c-0.95,0.92-2.1,1.64-3.35,2.07c-1.79,0.63-3.78,0.68-5.6,0.14
				c-1.1-0.32-2.14-0.85-3.04-1.56c-1.08-0.84-1.97-1.92-2.58-3.15c-0.62-1.23-0.94-2.6-0.96-3.97v-0.2C1.01,9.7,1.09,9,1.26,8.32
				c0.32-1.3,0.93-2.54,1.77-3.58c0.89-1.1,2.04-1.99,3.33-2.58C7.54,1.62,8.85,1.35,10.15,1.35 M9.93,2.91
				C8.63,2.95,7.34,3.32,6.23,4C5.16,4.65,4.25,5.56,3.61,6.64C3.01,7.66,2.65,8.82,2.58,10c-0.06,0.89,0.04,1.8,0.3,2.65
				c0.21,0.71,0.52,1.39,0.93,2c0.77,1.18,1.88,2.14,3.16,2.73c1.03,0.48,2.17,0.72,3.3,0.7c0.97-0.01,1.93-0.21,2.83-0.59
				c0.75-0.31,1.45-0.75,2.06-1.29c1.16-1.01,2-2.38,2.37-3.88c0.3-1.2,0.3-2.48-0.01-3.68c-0.29-1.16-0.86-2.25-1.65-3.15
				c-0.92-1.06-2.14-1.85-3.49-2.26C11.59,3,10.76,2.89,9.93,2.91z"/>
		</g>
		<g>
			<path class="st0" d="M11.67,5.19c0.31-0.03,0.64,0.03,0.92,0.17c0.34,0.17,0.61,0.47,0.76,0.82c0.23,0.55,0.14,1.21-0.25,1.67
				c-0.24,0.29-0.59,0.5-0.97,0.56c-0.36,0.06-0.73,0.01-1.05-0.17c-0.27-0.14-0.49-0.36-0.65-0.62c-0.15-0.26-0.23-0.56-0.22-0.85
				c0.01-0.37,0.14-0.73,0.38-1.01C10.86,5.44,11.26,5.23,11.67,5.19z"/>
		</g>
		<g>
			<path class="st0" d="M5.91,8.07c0.37-0.04,0.76,0.05,1.07,0.26c0.26,0.17,0.47,0.42,0.59,0.7c0.15,0.33,0.18,0.71,0.08,1.06
				c-0.09,0.37-0.32,0.7-0.63,0.92c-0.27,0.2-0.61,0.31-0.95,0.3c-0.33,0-0.66-0.1-0.93-0.29c-0.26-0.18-0.46-0.44-0.58-0.73
				C4.44,9.95,4.42,9.57,4.52,9.22c0.11-0.36,0.34-0.68,0.65-0.88C5.39,8.18,5.65,8.09,5.91,8.07z"/>
		</g>
		<g>
			<path class="st0" d="M15.43,10.14c0.25-0.05,0.53,0.02,0.73,0.18c0.26,0.21,0.38,0.57,0.29,0.9c-0.27,1-0.66,1.97-1.25,2.82
				c-0.51,0.74-1.19,1.38-1.97,1.82c-0.53,0.3-1.1,0.51-1.7,0.64c-0.63,0.14-1.29,0.18-1.93,0.16c-0.87-0.03-1.73-0.18-2.58-0.4
				C6.8,16.21,6.6,16.1,6.47,15.93c-0.17-0.2-0.23-0.49-0.17-0.74c0.06-0.29,0.28-0.53,0.55-0.63c0.18-0.07,0.38-0.07,0.56-0.02
				c0.79,0.21,1.61,0.35,2.43,0.36c0.77,0.01,1.55-0.11,2.26-0.44c0.55-0.25,1.03-0.64,1.42-1.11c0.56-0.68,0.92-1.5,1.17-2.33
				c0.05-0.14,0.07-0.3,0.14-0.43C14.94,10.36,15.17,10.19,15.43,10.14z"/>
		</g>
	</g>
</g>
</svg>
