<?xml version="1.0" encoding="utf-8"?>
<!-- Generator: Adobe Illustrator 24.3.0, SVG Export Plug-In . SVG Version: 6.00 Build 0)  -->
<svg version="1.1" id="Layer_1" xmlns="http://www.w3.org/2000/svg" xmlns:xlink="http://www.w3.org/1999/xlink" x="0px" y="0px"
	 viewBox="0 0 500 313" style="enable-background:new 0 0 500 313;" xml:space="preserve">
<style type="text/css">
	.st0{fill:#0397D5;}
</style>
<g>
	<g id="_x23_0397d5ff">
		<g>
			<path class="st0" d="M108.16,56.31c1.81-0.46,3.64-0.98,5.51-1.04c1.48,5.33,2.76,10.82,2.49,16.39
				c-0.08,6.05-2.23,12.05-6.06,16.74c-1.77,2.28-4.07,4.08-6.4,5.76c-0.25,0.21-0.58,0.38-0.68,0.71c5.01,2.65,9.7,5.96,13.69,10
				c0.43,0.59,1.14,0.4,1.62-0.02c4.92-3.62,11.06-5.36,17.12-5.49c3.44,0.36,6.97,0.35,10.3,1.45c4.93,1.24,9.48,3.73,13.55,6.73
				c-0.38,1.2-1.12,2.24-1.75,3.32c-3.06,4.98-6.83,9.73-11.9,12.77c-4.48,2.84-9.91,3.81-15.14,3.59
				c-4.86-0.21-9.52-1.95-13.69-4.38c-0.52-0.31-1-0.67-1.41-1.11c7.1-2.16,14.28-4.65,20.35-9.02c-7.88,2-15.84,3.98-23.99,4.39
				c-0.75,0.08-1.45-0.24-1.94-0.79c-2.73-2.78-5.8-5.21-9.03-7.36c-1.45-1.01-3.08-1.74-4.44-2.87c-0.32-2.25-0.1-4.54-0.07-6.81
				c0.59-7.2,2.02-14.33,4.11-21.24c0.42-1.26,0.98-2.47,1.23-3.78c-2.66,2.99-4.43,6.65-6.32,10.15
				c-2.37,5.12-4.35,10.53-4.77,16.2c-0.08,0.96-0.09,1.92-0.2,2.87c-2.62-0.52-5.18-1.32-7.75-2.04c-0.27-0.69-0.16-1.45-0.14-2.17
				c0.18-2.36,0.55-4.71,1.02-7.03c0.25-1.36,0.97-2.57,1.38-3.88c0.14-0.96-0.2-1.92-0.23-2.88c-0.24-2.79,0.27-5.56,0.88-8.27
				c0.53-2.3,1.79-4.31,2.76-6.43c0.67-1.52,2.02-2.55,2.99-3.86c2.53-3.31,5.95-5.88,9.68-7.7
				C103.12,57.74,105.75,57.26,108.16,56.31z"/>
		</g>
		<g>
			<path class="st0" d="M68.34,70.22c0.26-0.86,1.43-0.98,2.11-0.57c2.14,1.15,4.18,2.61,5.55,4.65c1.16,1.72,1.46,4.01,0.68,5.95
				c-0.54,1.33-0.97,2.7-1.43,4.06c-2.45-0.19-5.06-0.97-6.59-3.03c-1.24-1.36-1.66-3.23-1.5-5.02
				C67.12,74.2,67.57,72.14,68.34,70.22z"/>
		</g>
		<g>
			<path class="st0" d="M124.19,78.52c3.66-3.36,8.9-4.48,13.75-4.09c0.33,3.58,0.46,7.4-1.16,10.72c-1.46,3.17-4.64,5.71-8.24,5.66
				c-2.83,0.15-5.67-1.42-7.11-3.84C120.82,83.92,122.03,80.71,124.19,78.52z"/>
		</g>
		<g>
			<path class="st0" d="M47.29,91.35c1.01-0.18,1.82-0.84,2.76-1.19c2.58-0.96,5.24-1.73,7.95-2.19c3.27-0.16,6.46-1.2,9.75-1.1
				c3.8,0.07,7.68-0.21,11.4,0.69c-0.14,1.55-0.66,3.04-0.87,4.58c-0.56,2.89-0.67,5.87-1.37,8.72c-3.97-0.08-7.96-0.27-11.92,0.23
				c-8.53,1.12-16.81,4.34-23.76,9.42c-3.21,2.33-5.98,5.19-8.7,8.06c-2.78,3.45-5.37,7.1-7.23,11.13
				c-6.11,12.59-6.25,27.81-0.72,40.63c2.19,4.93,5.09,9.59,8.77,13.56c2,2.05,4,4.11,6.24,5.91c0.7,0.46,0.56,1.34,0.59,2.06
				c-0.08,5.27,0.08,10.55-0.12,15.82c-0.84-0.26-1.6-0.73-2.32-1.23c-9.08-5.93-17.05-13.73-22.59-23.1
				C9.7,174.5,6.49,164.23,6.1,153.8c0.02-3.29-0.19-6.59,0.31-9.86c-0.02-3.45,1.15-6.73,1.76-10.09
				c1.64-5.59,3.86-11.04,6.93-15.99c2.07-2.85,3.69-6.04,6.15-8.58c0.88-0.67,1.61-1.49,2.28-2.37c2.72-2.76,5.48-5.53,8.79-7.58
				c2.4-1.39,4.51-3.25,7.02-4.46"/>
		</g>
		<g>
			<path class="st0" d="M65.11,121.95c3.68-1.35,7.67-1.31,11.54-1.24c4.71,0.34,9.34,2.01,13.17,4.78
				c5.17,3.56,8.83,9.06,10.63,15.03c1.64,5.87,1.5,12.27-0.7,17.98c-1.31,3.25-3.42,6.12-5.77,8.69c-2.86,2.65-6.1,5.01-9.81,6.31
				c-4.74,1.75-9.97,2.55-14.97,1.53c-1.82-0.38-3.7-0.71-5.33-1.63c-0.16-0.72-0.15-1.47-0.16-2.2c0.02-4.61,0.01-9.22-0.03-13.84
				c1.21,0.43,2.29,1.15,3.48,1.63c3.78,1.53,8.18,1.87,11.99,0.26c1.82-0.92,3.67-1.96,4.9-3.63c1.02-1.37,1.96-2.87,2.37-4.55
				c0.52-3.05,0.3-6.34-1.22-9.1c-1.18-2.43-3.35-4.23-5.73-5.44c-4.11-1.85-9.1-1.46-12.89,0.97c-4.23,2.67-6.29,7.82-6.36,12.67
				c-0.01,25.95,0.02,51.91-0.01,77.86c-0.06,5.84-1.45,11.75-4.69,16.66c-2.97,4.65-7.34,8.41-12.4,10.61
				c-4.49,2.08-9.54,2.73-14.45,2.29c-10.55-1.23-20.18-9.16-22.86-19.53c-1.27-4.81-0.99-9.96,0.59-14.65
				c1.54,0.31,2.78,1.38,4.2,1.99c1.76,0.95,3.75,1.41,5.47,2.42c0.44,1.85,0.58,3.78,1.37,5.54c1.64,4.35,5.3,7.98,9.83,9.18
				c3.26,1.01,6.85,0.68,9.94-0.71c3.32-1.69,6.06-4.58,7.33-8.1c0.76-2.14,1.07-4.41,1.1-6.67c0-9.97-0.01-19.94,0.01-29.91
				c0.04-7.89-0.1-15.77,0.09-23.66c0.05-3.17-0.17-6.35,0.01-9.52c0.09-4.38,0.01-8.76,0.07-13.15c0.06-2.51-0.15-5.04,0.37-7.51
				c1.06-4.49,3.11-8.74,5.96-12.36c0.86-1.01,1.86-1.88,2.74-2.86c1.35-1.54,3.18-2.5,4.82-3.69
				C61.33,123.22,63.26,122.65,65.11,121.95z"/>
		</g>
		<g>
			<path class="st0" d="M120.92,129.91c2.56,0.24,5.06,0.97,7.64,0.98c2.48,0.24,4.95-0.13,7.43-0.03c0.72,1.5,1.08,3.15,1.55,4.74
				c1.53,5.38,2.49,10.95,2.37,16.56c-0.07,6.99-1.42,13.94-3.6,20.56c-2,5.6-4.85,10.88-8.23,15.76c-3.06,4-6.2,8.02-10.07,11.27
				c-13.13,12-31.51,18.35-49.25,16.04c-0.18-0.62-0.23-1.26-0.25-1.89c-0.08-4.26,0.06-8.51-0.02-12.77
				c1.95-0.15,3.89,0.31,5.84,0.31c6.95,0.18,13.93-1.25,20.28-4.07c4.99-2.09,9.46-5.25,13.56-8.73
				c7.61-6.9,13.41-15.96,15.78-26.01c1.89-8.79,1.83-18.1-0.91-26.71C122.53,133.86,121.32,132.02,120.92,129.91z"/>
		</g>
		<g>
			<path class="st0" d="M148.35,141.37c2.14-0.79,3.95,2.22,2.5,3.83c-1.02,1.5-3.71,0.96-4.12-0.79
				C146.3,143.18,147.11,141.74,148.35,141.37z"/>
		</g>
		<g>
			<path class="st0" d="M17.95,214.67c1.08-0.34,2.41-0.35,3.33,0.39c1.73,1.33,1.71,4.58-0.4,5.53c-1.45,0.95-3.53,0.38-4.46-1.02
				C15.27,217.96,16.03,215.31,17.95,214.67z"/>
		</g>
	</g>
	<g>
		<path class="st0" d="M164.93,126.75c3.57-0.61,8.46-1.11,15.08-1.11c7.19,0,12.44,1.51,15.87,4.41c3.21,2.63,5.28,6.87,5.28,11.94
			c0,5.11-1.6,9.32-4.59,12.21c-3.96,3.93-10.06,5.8-17.04,5.8c-1.84,0-3.49-0.09-4.82-0.38v20.35h-9.77V126.75z M174.71,151.89
			c1.25,0.33,2.82,0.45,4.82,0.45c7.36,0,11.85-3.67,11.85-9.99c0-5.94-4.16-9.13-10.98-9.13c-2.71,0-4.66,0.24-5.7,0.47V151.89z"/>
		<path class="st0" d="M208.34,153.56c0-5.22-0.11-9.05-0.32-12.52h8.53l0.37,7.4h0.28c1.92-5.48,6.46-8.28,10.66-8.28
			c0.96,0,1.52,0.04,2.31,0.21v9.27c-0.84-0.18-1.7-0.28-2.89-0.28c-4.69,0-7.95,2.99-8.83,7.45c-0.17,0.87-0.25,1.91-0.25,2.97
			v20.2h-9.85V153.56z"/>
		<path class="st0" d="M243.04,163.23c0.26,7.06,5.72,10.14,12.03,10.14c4.53,0,7.77-0.71,10.75-1.8l1.46,6.78
			c-3.33,1.41-7.96,2.47-13.61,2.47c-12.64,0-20.05-7.81-20.05-19.74c0-10.75,6.52-20.92,19.04-20.92
			c12.66,0,16.78,10.41,16.78,18.94c0,1.83-0.16,3.3-0.35,4.13H243.04z M260.16,156.37c0.04-3.61-1.53-9.49-8.12-9.49
			c-6.06,0-8.58,5.5-9.02,9.49H260.16z"/>
		<path class="st0" d="M277.38,152.62c0-4.5-0.14-8.21-0.32-11.58h8.6l0.49,5.85h0.23c1.72-3.02,5.94-6.73,12.41-6.73
			c6.79,0,13.84,4.37,13.84,16.69v23.13h-9.85V158c0-5.59-2.05-9.84-7.43-9.84c-3.92,0-6.63,2.77-7.66,5.78
			c-0.3,0.81-0.45,2-0.45,3.12v22.91h-9.85V152.62z"/>
		<path class="st0" d="M359.01,123.19v45.87c0,3.99,0.14,8.28,0.32,10.92h-8.77l-0.44-6.16h-0.18c-2.32,4.36-7.03,7.04-12.64,7.04
			c-9.3,0-16.66-7.93-16.66-19.9c-0.06-13.05,8.09-20.8,17.46-20.8c5.33,0,9.17,2.2,10.91,5.07h0.16v-22.05H359.01z M349.16,157.26
			c0-0.79-0.05-1.77-0.22-2.57c-0.87-3.79-4.04-6.92-8.46-6.92c-6.35,0-9.86,5.59-9.86,12.81c0,7.16,3.54,12.38,9.75,12.38
			c4.02,0,7.51-2.75,8.5-7.01c0.22-0.88,0.3-1.84,0.3-2.87V157.26z"/>
		<path class="st0" d="M369.13,170.92c2.17,1.35,6.41,2.84,9.94,2.84c4.33,0,6.27-1.82,6.27-4.37c0-2.64-1.61-3.98-6.39-5.68
			c-7.62-2.61-10.8-6.76-10.76-11.37c0-6.85,5.69-12.19,14.78-12.19c4.29,0,8.04,1.07,10.33,2.33l-1.95,6.91
			c-1.64-0.93-4.79-2.24-8.24-2.24c-3.5,0-5.45,1.73-5.45,4.12c0,2.47,1.88,3.66,6.8,5.46c7.09,2.5,10.36,6.12,10.39,11.86
			c0,7.1-5.53,12.22-15.81,12.22c-4.71,0-9-1.13-11.86-2.73L369.13,170.92z"/>
		<path class="st0" d="M414.22,129.88v11.15h9.37v7.34h-9.37v17.18c0,4.77,1.27,7.19,5.04,7.19c1.68,0,2.95-0.19,3.82-0.43l0.2,7.49
			c-1.48,0.55-4.06,1.01-7.17,1.01c-3.62,0-6.63-1.23-8.46-3.21c-2.12-2.24-3.08-5.82-3.08-10.92v-18.31h-5.56v-7.34h5.56v-8.82
			L414.22,129.88z"/>
		<path class="st0" d="M437.48,163.23c0.26,7.06,5.72,10.14,12.03,10.14c4.53,0,7.77-0.71,10.75-1.8l1.46,6.78
			c-3.33,1.41-7.96,2.47-13.61,2.47c-12.64,0-20.05-7.81-20.05-19.74c0-10.75,6.52-20.92,19.04-20.92
			c12.66,0,16.78,10.41,16.78,18.94c0,1.83-0.16,3.3-0.35,4.13H437.48z M454.61,156.37c0.04-3.61-1.53-9.49-8.12-9.49
			c-6.06,0-8.58,5.5-9.02,9.49H454.61z"/>
		<path class="st0" d="M471.81,153.56c0-5.22-0.11-9.05-0.32-12.52h8.53l0.36,7.4h0.28c1.92-5.48,6.46-8.28,10.66-8.28
			c0.96,0,1.52,0.04,2.31,0.21v9.27c-0.84-0.18-1.7-0.28-2.89-0.28c-4.69,0-7.95,2.99-8.83,7.45c-0.17,0.87-0.25,1.91-0.25,2.97
			v20.2h-9.85V153.56z"/>
	</g>
</g>
</svg>
