<?xml version="1.0" encoding="utf-8"?>
<!-- Generator: Adobe Illustrator 24.3.0, SVG Export Plug-In . SVG Version: 6.00 Build 0)  -->
<svg version="1.1" id="Layer_1" xmlns="http://www.w3.org/2000/svg" xmlns:xlink="http://www.w3.org/1999/xlink" x="0px" y="0px"
	 viewBox="0 0 100 100" style="enable-background:new 0 0 100 100;" xml:space="preserve">
<style type="text/css">
	.st0{fill:#FFFFFF;}
	.st1{fill:#3FA9F5;}
</style>
<circle class="st0" cx="50" cy="50" r="39.9"/>
<g>
	<path class="st1" d="M50,3c13,0,26,0,39,0c4,0,7.2,2.7,8,6.6c0.1,0.6,0.1,1.1,0.1,1.7c0,25.8,0,51.6,0,77.5c0,4.7-3.5,8.3-8.3,8.3
		c-26,0-51.9,0-77.9,0c-4.8,0-8.3-3.5-8.3-8.3c0-25.8,0-51.7,0-77.6C2.8,6.6,6.4,3,11,3C24,3,37,3,50,3C50,3,50,3,50,3z M51.1,84.8
		c1.6,0.1,4.3-0.3,6.9-0.8c8.4-1.8,15.3-6,20.7-12.6C85,63.8,87.4,55,86,45.3c-1.2-8.3-5.1-15.1-11.3-20.6
		c-7.2-6.3-15.7-9.2-25.1-9.2c-6.1,0-12,1.4-17.4,4.5c-12.4,7.1-18.9,17.6-18.4,32c0.4,10.1,4.9,18.2,12.7,24.5
		C33.3,82.1,41.2,84.7,51.1,84.8z"/>
	<path class="st1" d="M80.4,50.9c-0.3,10.1-5.3,18.4-14.6,23.9c-11.2,6.7-25.7,5.5-35.7-2.8c-6.2-5.2-9.8-11.8-10.4-20
		c-0.5-7.5,1.7-14.1,6.5-19.8c6.8-8,15.7-11.5,26.1-10.9c7,0.4,13.2,3.1,18.5,7.9C77.1,34.8,80.3,41.8,80.4,50.9z M49.2,73.4
		c1.1,0.1,2.5-0.1,4-0.2c5.5-0.7,10.3-2.7,14.2-6.6c3.9-3.8,6.2-8.6,7.6-13.7c0.1-0.5,0.2-1,0-1.5c-0.4-1.5-1.6-2.4-3.2-2.4
		c-1.7,0-2.9,0.9-3.4,2.6c-0.6,2-1.4,4-2.4,5.9c-2.1,3.8-5,6.8-9.2,8.3c-4.1,1.5-8.3,1.5-12.5,0.9c-1.8-0.2-3.5-0.6-5.3-1
		c-2-0.5-3.9,0.6-4.3,2.4c-0.4,1.7,0.7,3.4,2.6,3.9C41.2,72.8,45,73.4,49.2,73.4z M40.2,47.2c0-3.5-2.7-6.2-6.3-6.2
		c-3.5,0-6.4,2.7-6.5,6.1c0,3.3,2.9,6,6.4,6C37.4,53.1,40.2,50.6,40.2,47.2z M56.8,42.2c3.6,0,6.3-2.6,6.3-6c0-3.5-2.7-6.1-6.3-6.1
		c-3.5,0-6.3,2.7-6.3,6C50.5,39.6,53.2,42.2,56.8,42.2z"/>
</g>
</svg>
