<?xml version="1.0" encoding="utf-8"?>
<!-- Generator: Adobe Illustrator 24.3.0, SVG Export Plug-In . SVG Version: 6.00 Build 0)  -->
<svg version="1.1" baseProfile="basic" id="Layer_1"
	 xmlns="http://www.w3.org/2000/svg" xmlns:xlink="http://www.w3.org/1999/xlink" x="0px" y="0px" viewBox="0 0 100 100"
	 xml:space="preserve">
<style type="text/css">
	.st0{fill:#3FA9F5;}
</style>
<g>
	<path class="st0" d="M50.01,3c13.01,0,26.02-0.01,39.03,0c3.98,0,7.23,2.68,8.02,6.56c0.11,0.56,0.13,1.14,0.13,1.71
		C97.2,37.1,97.2,62.92,97.2,88.74c0,4.74-3.53,8.26-8.27,8.26c-25.95,0-51.91,0-77.86-0.01c-4.75,0-8.27-3.52-8.27-8.27
		c0-25.85,0-51.7,0.01-77.56c0-4.61,3.55-8.16,8.17-8.16C23.99,3,37,3.01,50.01,3C50.01,3.01,50.01,3,50.01,3z M51.14,84.81
		c1.62,0.08,4.3-0.28,6.94-0.85c8.35-1.81,15.33-5.96,20.72-12.6c6.18-7.61,8.62-16.35,7.23-26.06c-1.18-8.26-5.08-15.1-11.34-20.59
		c-7.18-6.3-15.66-9.24-25.12-9.19c-6.12,0.03-12.02,1.43-17.38,4.5c-12.35,7.07-18.91,17.59-18.36,31.99
		c0.38,10.07,4.94,18.22,12.67,24.53C33.32,82.12,41.25,84.74,51.14,84.81z"/>
	<path class="st0" d="M80.44,50.94c-0.34,10.15-5.3,18.36-14.57,23.91c-11.15,6.68-25.68,5.5-35.68-2.84
		c-6.23-5.2-9.82-11.84-10.37-20.02c-0.5-7.48,1.71-14.12,6.53-19.79c6.83-8.02,15.7-11.51,26.12-10.85
		c7.02,0.44,13.24,3.09,18.48,7.88C77.12,34.85,80.31,41.82,80.44,50.94z M49.22,73.41c1.13,0.08,2.54-0.05,3.95-0.23
		c5.46-0.67,10.27-2.72,14.25-6.61c3.92-3.83,6.17-8.56,7.63-13.74c0.14-0.5,0.17-0.99,0.02-1.49c-0.45-1.52-1.63-2.42-3.22-2.44
		c-1.67-0.02-2.93,0.91-3.42,2.62c-0.59,2.05-1.37,4.03-2.39,5.91c-2.08,3.85-5.03,6.75-9.19,8.29c-4.07,1.51-8.27,1.51-12.49,0.95
		c-1.77-0.24-3.52-0.62-5.27-1.03c-2.03-0.47-3.89,0.61-4.29,2.39c-0.38,1.69,0.74,3.42,2.61,3.86
		C41.19,72.79,45.01,73.45,49.22,73.41z M40.17,47.18c0.02-3.48-2.7-6.15-6.28-6.17c-3.52-0.02-6.41,2.71-6.46,6.08
		c-0.04,3.26,2.87,6.02,6.37,6.04C37.39,53.14,40.15,50.56,40.17,47.18z M56.83,42.18c3.58-0.01,6.26-2.58,6.26-6.01
		c0-3.48-2.71-6.11-6.3-6.11c-3.53,0-6.28,2.65-6.29,6.05C50.49,39.58,53.21,42.19,56.83,42.18z"/>
</g>
</svg>
